<svg width="1917" height="865" viewBox="0 0 1917 865" fill="none" xmlns="http://www.w3.org/2000/svg">
<g clip-path="url(#clip0_992_924)">
<path d="M0.35791 737.879H29.6454L55.3686 822.002L83.2391 737.53H106.663L134.522 822.002L160.256 737.879H188.824L146.403 863.011H122.631L94.5966 781.712L66.5517 863.011H42.7795L0.35791 737.879Z" fill="white"/>
<path d="M299.844 800.347V799.998C299.844 778.697 284.225 760.951 262.23 760.951C240.223 760.951 224.964 778.338 224.964 799.649V799.998C224.964 821.298 240.583 839.045 262.578 839.045C284.596 839.045 299.844 821.647 299.844 800.347ZM196.396 800.347V799.998C196.396 764.679 224.244 735.748 262.578 735.748C300.913 735.748 328.413 764.319 328.413 799.649V799.998C328.413 835.317 300.553 864.237 262.23 864.237C223.895 864.237 196.396 835.666 196.396 800.347Z" fill="white"/>
<path d="M407.692 798.218C421 798.218 428.63 791.121 428.63 780.656V780.297C428.63 768.578 420.466 762.55 407.157 762.55H380.006V798.218H407.692ZM352.67 737.881H409.457C425.251 737.881 437.502 742.318 445.666 750.483C452.587 757.405 456.315 767.161 456.315 778.88V779.228C456.315 799.286 445.492 811.887 429.698 817.741L460.043 862.108H428.096L401.479 822.363H380.006V862.108H352.67V737.881Z" fill="white"/>
<path d="M529.376 837.446C551.743 837.446 566.828 822.359 566.828 800.35V799.99C566.828 777.992 551.743 762.545 529.376 762.545H508.264V837.446H529.376ZM480.927 737.877H529.376C568.419 737.877 595.396 764.671 595.396 799.641V799.99C595.396 834.949 568.419 862.114 529.376 862.114H480.927V737.877Z" fill="white"/>
<path d="M668.634 800.528C682.302 800.528 690.281 792.363 690.281 781.713V781.364C690.281 769.111 681.768 762.549 668.1 762.549H646.987V800.528H668.634ZM619.651 737.88H670.411C700.047 737.88 717.966 755.442 717.966 780.83V781.19C717.966 809.935 695.611 824.837 667.751 824.837H646.987V862.107H619.651V737.88Z" fill="white"/>
<path d="M793.172 798.218C806.48 798.218 814.11 791.121 814.11 780.656V780.297C814.11 768.578 805.946 762.55 792.637 762.55H765.486V798.218H793.172ZM738.15 737.881H794.937C810.731 737.881 822.982 742.318 831.135 750.483C838.067 757.405 841.795 767.161 841.795 778.88V779.228C841.795 799.286 830.972 811.887 815.178 817.741L845.523 862.108H813.576L786.959 822.363H765.486V862.108H738.15V737.881Z" fill="white"/>
<path d="M866.405 737.879H960.109V762.188H893.556V787.391H952.12V811.7H893.556V837.796H961.003V862.105H866.405V737.879Z" fill="white"/>
<path d="M976.753 844.014L992.895 824.665C1004.08 833.887 1015.8 839.752 1029.99 839.752C1041.17 839.752 1047.92 835.315 1047.92 828.034V827.685C1047.92 820.763 1043.64 817.209 1022.89 811.889C997.866 805.501 981.723 798.579 981.723 773.9V773.551C981.723 751.019 999.828 736.106 1025.2 736.106C1043.3 736.106 1058.74 741.786 1071.33 751.902L1057.14 772.483C1046.14 764.852 1035.32 760.241 1024.84 760.241C1014.38 760.241 1008.87 765.037 1008.87 771.076V771.425C1008.87 779.59 1014.19 782.25 1035.67 787.755C1060.87 794.317 1075.06 803.365 1075.06 825.025V825.374C1075.06 850.053 1056.24 863.887 1029.45 863.887C1010.65 863.887 991.664 857.324 976.753 844.014Z" fill="white"/>
<path d="M1088.5 844.014L1104.64 824.665C1115.84 833.887 1127.54 839.752 1141.75 839.752C1152.92 839.752 1159.67 835.315 1159.67 828.034V827.685C1159.67 820.763 1155.4 817.209 1134.64 811.889C1109.61 805.501 1093.47 798.579 1093.47 773.9V773.551C1093.47 751.019 1111.58 736.106 1136.95 736.106C1155.04 736.106 1170.49 741.786 1183.09 751.902L1168.9 772.483C1157.89 764.852 1147.06 760.241 1136.59 760.241C1126.13 760.241 1120.62 765.037 1120.62 771.076V771.425C1120.62 779.59 1125.95 782.25 1147.41 787.755C1172.62 794.317 1186.82 803.365 1186.82 825.025V825.374C1186.82 850.053 1168 863.887 1141.21 863.887C1122.4 863.887 1103.41 857.324 1088.5 844.014Z" fill="white"/>
<path d="M1210.56 737.879H1237.9V787.042H1288.3V737.879H1315.62V862.105H1288.3V812.234H1237.9V862.105H1210.56V737.879Z" fill="white"/>
<path d="M1345.38 737.879H1439.08V762.188H1372.53V787.391H1431.09V811.7H1372.53V837.796H1439.98V862.105H1345.38V737.879Z" fill="white"/>
<path d="M1535.58 810.109L1519.07 769.83L1502.58 810.109H1535.58ZM1506.83 736.996H1532.03L1585.27 862.117H1556.69L1545.33 834.254H1492.81L1481.45 862.117H1453.59L1506.83 736.996Z" fill="white"/>
<path d="M1604.37 737.879H1631.71V837.262H1693.63V862.105H1604.37V737.879Z" fill="white"/>
<path d="M1725.38 763.078H1687.58V737.875H1790.51V763.078H1752.7V862.112H1725.38V763.078Z" fill="white"/>
<path d="M1811.39 737.879H1838.73V787.042H1889.13V737.879H1916.46V862.105H1889.13V812.234H1838.73V862.105H1811.39V737.879Z" fill="white"/>
<path d="M337.706 124.024H451.858L515.61 364.967L590.48 122.542H687.585L763.197 365.708L828.42 124.024H940.36L816.561 524.36H715.009L638.657 280.452L560.822 524.36H460.011L337.706 124.024Z" fill="white"/>
<path d="M1135.59 323.451V321.968C1135.59 255.985 1091.11 212.251 1038.49 212.251C985.854 212.251 942.125 255.985 942.125 321.968V323.451C942.125 389.434 985.854 433.168 1038.49 433.168C1091.11 433.168 1135.59 390.175 1135.59 323.451ZM830.926 124.03H943.607V181.107C971.031 144.044 1008.84 116.606 1067.39 116.606C1160.05 116.606 1248.26 189.261 1248.26 321.968V323.451C1248.26 456.147 1161.54 528.802 1067.39 528.802C1007.35 528.802 970.29 501.375 943.607 469.49V640.013H830.926V124.03Z" fill="white"/>
<path d="M1242.55 559.635C1247.67 559.635 1252.14 556.038 1253.21 550.98L1349.8 90.8747L1371.33 416.757C1371.66 421.564 1375.1 425.609 1379.81 426.666C1384.55 427.723 1389.38 425.576 1391.72 421.357L1444.74 326.672L1470.77 406.608C1472.03 410.446 1475.29 413.28 1479.27 413.967C1483.3 414.686 1487.27 413.105 1489.74 409.922L1510.91 382.703H1577.75C1583.78 382.703 1588.65 377.819 1588.65 371.802C1588.65 365.785 1583.78 360.901 1577.75 360.901H1505.58C1502.21 360.901 1499.04 362.46 1496.98 365.109L1485.15 380.326L1457.75 296.259C1456.41 292.138 1452.76 289.206 1448.46 288.781C1444.05 288.345 1439.99 290.525 1437.88 294.307L1390.67 378.626L1366.32 10.2408C1365.96 4.80121 1361.65 0.462642 1356.21 0.0811117C1350.87 -0.267704 1345.89 3.38409 1344.78 8.7146L1246.27 477.933L1225.46 274.086C1224.98 269.399 1221.54 265.54 1216.94 264.537C1212.3 263.534 1207.6 265.605 1205.22 269.66L1140.55 379.531V335.72C1140.55 331.316 1137.89 327.337 1133.82 325.647C1129.73 323.98 1125.05 324.895 1121.95 328.013L1094.87 355.08H1050.5C1044.47 355.08 1039.6 359.963 1039.6 365.981C1039.6 372.009 1044.47 376.882 1050.5 376.882H1099.38C1102.28 376.882 1105.05 375.737 1107.09 373.688L1118.75 362.035V419.526C1118.75 424.453 1122.03 428.759 1126.79 430.045C1131.54 431.353 1136.54 429.293 1139.04 425.064L1207.14 309.361L1231.69 549.846C1232.25 555.188 1236.6 559.341 1241.96 559.624C1242.16 559.635 1242.35 559.635 1242.55 559.635Z" fill="white"/>
</g>
<defs>
<clipPath id="clip0_992_924">
<rect width="1917" height="865" fill="white"/>
</clipPath>
</defs>
</svg>
