<svg width="60" height="60" viewBox="0 0 60 60" fill="none" xmlns="http://www.w3.org/2000/svg">
<g id="comment-text-svgrepo-com 1" clip-path="url(#clip0_456_110)">
<g id="Layer 2">
<g id="icons Q2">
<path id="Vector" d="M50 10V40H17L15.5 41.375L10 46.625V10H50ZM52.5 5H7.5C6.83696 5 6.20107 5.26339 5.73223 5.73223C5.26339 6.20107 5 6.83696 5 7.5V52.5C5 53.163 5.26339 53.7989 5.73223 54.2678C6.20107 54.7366 6.83696 55 7.5 55C8.15942 54.9906 8.78842 54.721 9.25 54.25L19 45H52.5C53.163 45 53.7989 44.7366 54.2678 44.2678C54.7366 43.7989 55 43.163 55 42.5V7.5C55 6.83696 54.7366 6.20107 54.2678 5.73223C53.7989 5.26339 53.163 5 52.5 5Z" fill="#2A9BD5"/>
<path id="Vector_2" d="M40 17.5H20C18.6193 17.5 17.5 18.6193 17.5 20C17.5 21.3807 18.6193 22.5 20 22.5H40C41.3807 22.5 42.5 21.3807 42.5 20C42.5 18.6193 41.3807 17.5 40 17.5Z" fill="#2A9BD5"/>
<path id="Vector_3" d="M30 27.5H20C18.6193 27.5 17.5 28.6193 17.5 30C17.5 31.3807 18.6193 32.5 20 32.5H30C31.3807 32.5 32.5 31.3807 32.5 30C32.5 28.6193 31.3807 27.5 30 27.5Z" fill="#2A9BD5"/>
</g>
</g>
</g>
<defs>
<clipPath id="clip0_456_110">
<rect width="60" height="60" fill="white"/>
</clipPath>
</defs>
</svg>
