<svg width="60" height="60" viewBox="0 0 60 60" fill="none" xmlns="http://www.w3.org/2000/svg">
<g id="chart-line-svgrepo-com 1" clip-path="url(#clip0_456_96)">
<g id="Layer 2">
<g id="icons Q2">
<path id="Vector" d="M26.375 25.875L36.5 35.875L55.625 15.5C56.0746 14.9958 56.3126 14.3376 56.2893 13.6624C56.266 12.9873 55.9833 12.347 55.5 11.875C54.9958 11.4254 54.3376 11.1874 53.6624 11.2107C52.9873 11.234 52.347 11.5167 51.875 12L36 29L26.125 19.125L10 35.25V7.5C10 6.83696 9.73661 6.20107 9.26777 5.73223C8.79893 5.26339 8.16304 5 7.5 5C6.83696 5 6.20107 5.26339 5.73223 5.73223C5.26339 6.20107 5 6.83696 5 7.5V55H52.5C53.163 55 53.7989 54.7366 54.2678 54.2678C54.7366 53.7989 55 53.163 55 52.5C55 51.837 54.7366 51.2011 54.2678 50.7322C53.7989 50.2634 53.163 50 52.5 50H10V42.25L26.375 25.875Z" fill="#2A9BD5"/>
</g>
</g>
</g>
<defs>
<clipPath id="clip0_456_96">
<rect width="60" height="60" fill="white"/>
</clipPath>
</defs>
</svg>
