<svg width="60" height="60" viewBox="0 0 60 60" fill="none" xmlns="http://www.w3.org/2000/svg">
<g id="security-verified-svgrepo-com 1" clip-path="url(#clip0_456_82)">
<g id="Layer 2">
<g id="icons Q2">
<path id="Vector" d="M30 7.75C36.625 9.625 43.875 11.875 47.5 13.125V32.75C47.5 37 42.875 44.5 30 52C17.125 44.375 12.5 37 12.5 32.75V13.125C16.125 11.75 23.375 9.625 30 7.75ZM30 2.5C30 2.5 7.5 8.875 7.5 10V32.75C7.5 44.25 24.125 54.375 28.75 57.125C29.12 57.3722 29.555 57.5042 30 57.5042C30.445 57.5042 30.88 57.3722 31.25 57.125C36 54.5 52.5 44.25 52.5 32.75V10C52.5 8.875 30 2.5 30 2.5Z" fill="#2A9BD5"/>
<path id="Vector_2" d="M24.5001 36.75L18.2501 30.625C17.817 30.1823 17.5544 29.6008 17.5086 28.9832C17.4629 28.3656 17.637 27.7517 18.0001 27.25C18.2025 26.9487 18.4711 26.6979 18.7855 26.5166C19.0999 26.3354 19.4517 26.2286 19.8138 26.2044C20.1758 26.1803 20.5387 26.2394 20.8743 26.3773C21.21 26.5153 21.5096 26.7283 21.7501 27L26.2501 31.5L38.2501 19.5C38.7316 19.1389 39.3271 18.9636 39.9273 19.0063C40.5276 19.049 41.0924 19.3067 41.5179 19.7322C41.9434 20.1578 42.2012 20.7225 42.2438 21.3228C42.2865 21.9231 42.1112 22.5186 41.7501 23L28.0001 36.75C27.7776 36.9925 27.5072 37.1861 27.2059 37.3185C26.9047 37.451 26.5792 37.5193 26.2501 37.5193C25.921 37.5193 25.5956 37.451 25.2943 37.3185C24.9931 37.1861 24.7226 36.9925 24.5001 36.75Z" fill="#2A9BD5"/>
</g>
</g>
</g>
<defs>
<clipPath id="clip0_456_82">
<rect width="60" height="60" fill="white"/>
</clipPath>
</defs>
</svg>
