<svg width="93" height="63" viewBox="0 0 93 63" fill="none" xmlns="http://www.w3.org/2000/svg">
<g id="Logo">
<g id="Group 134">
<path id="Vector" d="M7.33447 53.8911H9.50088L11.4036 60.015L13.4652 53.8657H15.1979L17.2586 60.015L19.1622 53.8911H21.2754L18.1375 63.0003H16.379L14.3053 57.082L12.2308 63.0003H10.4724L7.33447 53.8911Z" fill="#204E82"/>
<path id="Vector_2" d="M27.0095 58.2803C28.0205 58.2803 28.6108 57.6859 28.6108 56.9106V56.8852C28.6108 55.9932 27.981 55.5155 26.97 55.5155H25.4083V58.2803H27.0095ZM23.3862 53.7197H27.141C29.3331 53.7197 30.6586 54.9982 30.6586 56.8463V56.8726C30.6586 58.9651 29.005 60.0499 26.9442 60.0499H25.4083V62.763H23.3862V53.7197Z" fill="#204E82"/>
<path id="Vector_3" d="M32.9697 53.7114H34.9921V57.2903H38.7202V53.7114H40.741V62.7547H38.7202V59.1242H34.9921V62.7547H32.9697V53.7114Z" fill="#2A9BD5"/>
<path id="Vector_4" d="M42.9424 53.7114H49.8734V55.481H44.9507V57.3157H49.2824V59.0854H44.9507V60.9851H49.94V62.7547H42.9424V53.7114Z" fill="#2A9BD5"/>
<path id="Vector_5" d="M57.0116 58.9694L55.7904 56.0372L54.5706 58.9694H57.0116ZM54.885 53.647H56.749L60.6872 62.7554H58.5731L57.7328 60.727H53.8479L53.0076 62.7554H50.9468L54.885 53.647Z" fill="#2A9BD5"/>
<path id="Vector_6" d="M62.1001 53.7114H64.1224V60.9462H68.7027V62.7547H62.1001V53.7114Z" fill="#2A9BD5"/>
<path id="Vector_7" d="M71.051 55.5456H68.2549V53.7109H75.8686V55.5456H73.0718V62.755H71.051V55.5456Z" fill="#2A9BD5"/>
<path id="Vector_8" d="M77.4131 53.7114H79.4354V57.2903H83.1635V53.7114H85.1851V62.7547H83.1635V59.1242H79.4354V62.7547H77.4131V53.7114Z" fill="#2A9BD5"/>
</g>
<path id="Vector_9" d="M0 9.02439H8.44386L13.1596 26.5643L18.6978 8.9165H25.8807L31.4737 26.6182L36.2983 9.02439H44.5785L35.421 38.1675H27.9092L22.2614 20.4118L16.504 38.1675H9.04694L0 9.02439Z" fill="#204E82"/>
<path id="Vector_10" d="M59.02 23.542V23.4341C59.02 18.6307 55.7298 15.447 51.8375 15.447C47.944 15.447 44.7093 18.6307 44.7093 23.4341V23.542C44.7093 28.3454 47.944 31.5291 51.8375 31.5291C55.7298 31.5291 59.02 28.3993 59.02 23.542ZM36.4839 9.02482H44.8189V13.1798C46.8475 10.4818 49.6442 8.48438 53.9752 8.48438C60.8293 8.48438 67.3542 13.7734 67.3542 23.4341V23.542C67.3542 33.2018 60.9395 38.4909 53.9752 38.4909C49.534 38.4909 46.7927 36.4943 44.8189 34.1732V46.5867H36.4839V9.02482Z" fill="#2A9BD5"/>
<path id="Vector_11" d="M67.399 40.7354C67.7777 40.7354 68.1084 40.4735 68.1875 40.1053L75.3323 6.61115L76.9249 30.3343C76.9493 30.6842 77.2038 30.9787 77.5522 31.0557C77.9028 31.1326 78.26 30.9763 78.4331 30.6692L82.355 23.7764L84.2805 29.5955C84.3737 29.8749 84.6148 30.0812 84.9092 30.1312C85.2073 30.1836 85.501 30.0685 85.6837 29.8367L87.2497 27.8553H92.1938C92.6399 27.8553 93.0001 27.4998 93.0001 27.0617C93.0001 26.6237 92.6399 26.2682 92.1938 26.2682H86.8554C86.6061 26.2682 86.3716 26.3817 86.2193 26.5745L85.3442 27.6823L83.3174 21.5625C83.2183 21.2625 82.9483 21.049 82.6302 21.0181C82.304 20.9863 82.0037 21.145 81.8476 21.4204L78.3555 27.5585L76.5543 0.741267C76.5277 0.345282 76.2089 0.0294489 75.8065 0.00167478C75.4115 -0.0237179 75.0431 0.24212 74.961 0.630164L67.6742 34.7877L66.1348 19.9483C66.0993 19.6071 65.8449 19.3262 65.5046 19.2532C65.1614 19.1802 64.8137 19.3309 64.6377 19.6261L59.854 27.6244V24.4351C59.854 24.1145 59.6573 23.8248 59.3562 23.7018C59.0537 23.5805 58.7075 23.6471 58.4782 23.874L56.4751 25.8444H53.193C52.747 25.8444 52.3867 26.1999 52.3867 26.638C52.3867 27.0768 52.747 27.4315 53.193 27.4315H56.8087C57.0232 27.4315 57.2281 27.3482 57.379 27.199L58.2415 26.3507V30.5359C58.2415 30.8946 58.4841 31.208 58.8362 31.3016C59.1876 31.3969 59.5574 31.2469 59.7423 30.939L64.7797 22.5162L66.5957 40.0228C66.6371 40.4116 66.9589 40.714 67.3553 40.7346C67.3701 40.7354 67.3842 40.7354 67.399 40.7354Z" fill="#204E82"/>
</g>
</svg>
