<svg width="416" height="292" viewBox="0 0 416 292" fill="none" xmlns="http://www.w3.org/2000/svg">
<path d="M255.427 132.622C284.603 148.689 343.793 181.988 344.098 181.775C344.098 181.775 365.858 189.976 378.198 181.775C398.776 168.117 409.798 131.35 372.177 99.7041C353.42 83.9271 340.089 80.0857 338.062 54.8882C336.964 41.2149 318.246 -3.89812 287.233 0.270968C284.634 0.621568 268.666 1.36844 258.171 6.87895C231.418 20.9258 211.686 126.403 255.427 132.622Z" fill="#233862"/>
<path d="M279.878 118.95C279.756 119.034 294.237 123.973 303.924 119.712C313.032 115.68 319.93 100.658 319.8 100.658C315.654 100.46 311.104 96.847 307.606 73.0596L305.845 73.6999L276.166 84.3703C276.166 84.3703 278.315 93.8897 279.71 102.952C280.876 110.581 281.501 117.86 279.878 118.95Z" fill="#FFB27D"/>
<path d="M276.158 84.3841C276.158 84.3841 278.307 93.9036 279.702 102.966C296.744 99.9171 303.436 82.9207 305.837 73.7061L276.158 84.3841Z" fill="#ED975D"/>
<path d="M271.746 93.8288C271.746 93.8288 312.339 88.3792 308.559 63.1513C304.779 37.9233 307.469 20.2257 281.387 22.6342C255.306 25.0427 251.724 35.4311 250.939 44.158C250.154 52.8849 261.083 94.5985 271.746 93.8288Z" fill="#FFB27D"/>
<path d="M252.417 30.3312C252.417 30.3312 278.406 52.7238 296.089 54.5302C313.771 56.3365 320.478 50.6585 320.478 50.6585C313.423 44.3448 307.741 36.6473 303.787 28.0447C302.887 26.0218 301.463 24.2761 299.662 22.9884C297.861 21.7006 295.749 20.9176 293.543 20.7203C280.891 19.6304 256.967 19.1349 252.417 30.3312Z" fill="#233862"/>
<path d="M268.665 28.3199C268.665 28.3199 259.969 36.7037 257.233 42.9612C254.588 48.9824 253.795 63.3722 255.899 69.0885C255.899 69.0885 242.355 42.7477 250.023 29.9508C258.155 16.3765 268.665 28.3199 268.665 28.3199Z" fill="#233862"/>
<path d="M245.694 178.758C246.921 260.943 246.029 243.764 255.023 251.561C257.188 253.443 263.277 254.564 271.288 255.09C296.493 256.766 340.791 252.612 342.475 247.955C348.29 231.843 344.182 226.836 349.037 202.164C349.54 199.542 350.165 196.699 350.897 193.605C354.944 176.662 358.877 170.9 344.533 143.675C331.522 119.019 318.009 99.004 316.797 99.728C282.5 120.101 279.702 102.975 279.702 102.975C279.702 102.975 245.092 138.667 245.694 178.758Z" fill="white"/>
<path d="M279.702 102.967C279.702 102.967 244.383 108.958 240.237 124.163C236.091 139.368 211.686 228.756 211.686 228.756C211.686 228.756 229.643 231.988 237.935 223.688C246.228 215.387 266.791 146.708 266.791 146.708L279.702 102.967Z" fill="white"/>
<path d="M271.265 255.088C296.47 256.765 340.768 252.611 342.452 247.954C348.267 231.842 344.159 226.834 349.014 202.163L336.858 167.934C336.858 167.934 338.87 206.042 327.628 216.073C316.386 226.103 281.608 235.424 276.143 243.8C273.552 247.817 271.799 251.849 271.265 255.088Z" fill="#EBF3FF"/>
<path d="M300.167 239.044C300.167 239.044 275.304 233.511 271.288 235.713C267.271 237.916 257.477 245.957 256.25 248.754C255.023 251.551 265.175 246.628 268.483 245.706C270.625 245.134 276.257 247.085 279.047 247.992C290.777 251.91 297.964 249.898 297.964 249.898L300.167 239.044Z" fill="#FFB27D"/>
<path d="M316.812 99.7041C316.812 99.7041 350.195 101.762 361.78 117.882C378.053 140.572 410.324 237.261 391.826 250.165C371.003 264.646 297.034 253.976 297.034 253.976C297.034 253.976 294.572 242.467 297.994 236.903C301.416 231.339 357.078 222.353 359.646 219.785C362.215 217.216 327.536 169.694 327.536 161.989C327.536 154.283 316.812 99.7041 316.812 99.7041Z" fill="white"/>
<path d="M270.084 242.65C270.084 242.65 264.878 249.373 263.171 250.173C262.31 250.638 261.334 250.847 260.358 250.775L263.872 244.457L270.084 242.65Z" fill="#FFB27D"/>
<path d="M271.265 235.729L256.12 243.085C256.12 243.085 256.768 244.136 258.628 244.053C260.488 243.969 265.198 242.246 265.198 242.246L271.265 235.729Z" fill="#FFB27D"/>
<path d="M263.171 260.462H143.365L107.322 170.838H226.945L263.171 260.462Z" fill="#DBECF8"/>
<path d="M141.962 256.971H300.166V260.461H143.365L141.962 256.971Z" fill="#309BD3"/>
<path d="M173.608 215.653C172.709 212.505 174.523 209.952 177.678 209.952C179.336 210.045 180.926 210.64 182.237 211.659C183.548 212.677 184.518 214.07 185.018 215.653C185.917 218.801 184.096 221.362 180.948 221.362C177.8 221.362 174.515 218.801 173.608 215.653Z" fill="#309BD3"/>
<path d="M313.955 75.9264C313.955 75.9264 312.964 79.7372 307.278 84.2111C301.592 88.6851 293.346 91.9168 293.346 91.9168L292.682 89.0281C292.682 89.0281 301.219 85.324 305.175 81.2387C309.13 77.1535 309.625 74.9355 309.625 74.9355L313.955 75.9264Z" fill="#D9E1EB"/>
<path d="M291.699 86.8934C289.97 86.7869 288.261 87.3116 286.89 88.3699C285.519 89.4283 284.579 90.9485 284.245 92.6479C283.925 94.9877 286.127 97.6096 291.272 95.3078C297.659 92.4421 296.272 87.1068 291.699 86.8934Z" fill="#04377D"/>
<path d="M310.372 47.6343C310.372 47.6343 308.391 33.4198 298.871 23.7706C280.693 5.34128 265.236 6.46171 265.236 6.46171C265.236 6.46171 265.358 3.8627 271.166 1.88867C276.623 0.0289627 279.085 1.0275 279.085 1.0275C279.085 1.0275 294.047 2.26218 306.661 16.2328C319.275 30.2035 320.631 48.0154 320.631 48.0154L310.372 47.6343Z" fill="#D9E1EB"/>
<path d="M311.729 45.8722C323.634 43.8525 330.281 53.1664 330.784 62.564C331.287 71.9616 324.442 79.1108 315.327 78.3943C294.786 76.7861 297.141 48.3493 311.729 45.8722Z" fill="white"/>
<path d="M317.659 69.2635C319.164 69.287 320.646 68.8909 321.938 68.1195C323.231 67.3481 324.282 66.232 324.976 64.8963C325.777 63.4557 326.168 61.8235 326.108 60.1764C326.047 58.5293 325.537 56.93 324.633 55.552C324.564 55.4557 324.46 55.3901 324.344 55.3687C324.227 55.3474 324.107 55.3721 324.008 55.4378C323.959 55.4707 323.917 55.5132 323.884 55.5624C323.851 55.6117 323.829 55.6668 323.818 55.7249C323.806 55.7829 323.806 55.8428 323.818 55.9007C323.83 55.9587 323.853 56.0138 323.886 56.0628C324.696 57.3 325.152 58.7348 325.206 60.2123C325.259 61.6899 324.909 63.154 324.191 64.4467C323.557 65.676 322.582 66.6969 321.383 67.3875C320.184 68.0781 318.812 68.4091 317.431 68.3413C316.144 68.3339 314.878 68.0104 313.746 67.399C312.614 66.7876 311.649 65.9073 310.937 64.8354C310.105 63.5477 309.583 62.0844 309.413 60.5608C309.242 59.0373 309.427 57.495 309.954 56.0552C311.028 53.2351 313.962 51.3144 316.63 51.665C316.689 51.6743 316.75 51.6714 316.808 51.6569C316.867 51.6423 316.921 51.6163 316.97 51.5802C317.018 51.5441 317.058 51.4987 317.088 51.4468C317.118 51.3948 317.138 51.3374 317.146 51.2778C317.153 51.2182 317.149 51.1578 317.133 51.0999C317.116 51.0421 317.089 50.988 317.051 50.941C317.014 50.894 316.968 50.8548 316.915 50.826C316.862 50.7972 316.804 50.7794 316.745 50.7734C313.627 50.3618 310.35 52.4957 309.123 55.7349C308.548 57.3086 308.346 58.9941 308.532 60.6591C308.719 62.324 309.289 63.9232 310.197 65.3308C310.988 66.5235 312.06 67.5035 313.319 68.1841C314.577 68.8646 315.984 69.2249 317.415 69.2332L317.659 69.2635Z" fill="#708DB5"/>
<path d="M7.87338 291.361L407.351 291.361C411.7 291.361 415.225 287.836 415.225 283.488V268.534C415.225 264.186 411.7 260.661 407.351 260.661L7.87338 260.661C3.52509 260.661 6.10352e-05 264.186 6.10352e-05 268.534V283.488C6.10352e-05 287.836 3.52509 291.361 7.87338 291.361Z" fill="#D7D7D7"/>
<g clip-path="url(#clip0_1_1369)">
<path d="M149.267 117.311H100.654C97.6461 117.311 95.2078 119.768 95.2078 122.8V147.267C95.2078 150.299 97.6461 152.757 100.654 152.757H149.267C152.274 152.757 154.713 150.299 154.713 147.267V122.8C154.713 119.768 152.274 117.311 149.267 117.311Z" fill="#4CA9FF"/>
<path d="M124.96 166.614L132.664 148.212H117.256L124.96 166.614Z" fill="#4CA9FF"/>
<path d="M124.78 128.948H138.694V131L145.515 127.037L138.694 123.066V125.118H124.78V128.948Z" fill="#04377D"/>
<path d="M145.515 137.016H131.601V134.964L124.78 138.927L131.601 142.891V140.839H145.515V137.016Z" fill="white"/>
<path d="M116.235 140.622L115.575 140.867C114.306 139.367 113.252 137.696 112.442 135.902C111.758 134.061 111.382 132.118 111.331 130.153L111.817 129.95L108.872 122.85C108.3 123.301 107.815 123.854 107.441 124.481C105.78 127.317 105.94 131.673 107.614 135.923C109.288 140.174 111.087 143.969 114.352 146.357C116.283 147.757 117.93 148.009 119.215 147.806L116.235 140.622Z" fill="#04377D"/>
<path d="M118.354 139.789L117.437 140.125L120.452 147.394C120.767 147.288 121.071 147.155 121.362 146.994C121.738 146.787 122.026 146.449 122.172 146.043C122.318 145.636 122.311 145.191 122.154 144.789L120.577 140.797C120.411 140.37 120.085 140.025 119.669 139.836C119.254 139.648 118.782 139.631 118.354 139.789Z" fill="#04377D"/>
<path d="M111.206 121.604C110.797 121.755 110.401 121.942 110.025 122.164L113.033 129.411L114.047 128.991C114.468 128.811 114.803 128.473 114.981 128.048C115.159 127.623 115.165 127.145 114.999 126.715L113.422 122.633C113.258 122.204 112.935 121.857 112.521 121.665C112.107 121.473 111.636 121.451 111.206 121.604Z" fill="#04377D"/>
</g>
<defs>
<clipPath id="clip0_1_1369">
<rect width="59.505" height="49.3042" fill="white" transform="translate(95.2078 117.311)"/>
</clipPath>
</defs>
</svg>
