<svg width="124" height="123" viewBox="0 0 124 123" fill="none" xmlns="http://www.w3.org/2000/svg">
<g id="Icon">
<path id="Vector" d="M72 61.2501H61.75M61.75 61.2501H51.5M61.75 61.2501V51M61.75 61.2501V71.5" stroke="#2A9BD5" stroke-width="7" stroke-linecap="round"/>
<path id="Vector_2" d="M62 28.5669L59.1925 31.1921C59.9192 31.9695 60.9355 32.4107 62 32.4107C63.0645 32.4107 64.0807 31.9695 64.8075 31.1921L62 28.5669ZM14.0894 70.1203C15.188 71.9371 17.5511 72.5188 19.3676 71.4205C21.184 70.3217 21.766 67.9586 20.6674 66.1423L14.0894 70.1203ZM34.0038 82.8744C32.5228 81.3533 30.0893 81.321 28.5684 82.8021C27.0475 84.2828 27.0152 86.7166 28.4962 88.2372L34.0038 82.8744ZM14.5937 47.7518C14.5937 32.8656 21.0905 23.6633 29.1284 20.5159C37.1485 17.3755 48.3695 19.6169 59.1925 31.1921L64.8075 25.9418C52.569 12.8523 38.1649 8.72166 26.3254 13.3576C14.5037 17.9866 6.90625 30.709 6.90625 47.7518H14.5937ZM79.9934 102.3C87.6419 96.0928 96.8059 87.7744 104.09 78.4838C111.3 69.2875 117.094 58.606 117.094 47.7516H109.406C109.406 56.0102 104.9 64.9917 98.0405 73.7401C91.2555 82.3942 82.5799 90.3005 75.1492 96.3306L79.9934 102.3ZM117.094 47.7516C117.094 30.709 109.496 17.9866 97.6746 13.3576C85.8353 8.72166 71.431 12.8523 59.1925 25.9418L64.8075 31.1921C75.6304 19.6169 86.8516 17.3755 94.8717 20.5159C102.909 23.6632 109.406 32.8655 109.406 47.7516H117.094ZM44.0068 102.3C50.523 107.588 55.0418 111.468 62 111.468V103.781C58.2951 103.781 55.9879 102.122 48.8509 96.3306L44.0068 102.3ZM75.1492 96.3306C68.0121 102.122 65.7049 103.781 62 103.781V111.468C68.9582 111.468 73.4769 107.588 79.9934 102.3L75.1492 96.3306ZM20.6674 66.1423C16.8391 59.8124 14.5937 53.5814 14.5937 47.7518H6.90625C6.90625 55.5018 9.86061 63.1288 14.0894 70.1203L20.6674 66.1423ZM48.8509 96.3306C44.1512 92.5166 38.932 87.9353 34.0038 82.8744L28.4962 88.2372C33.6868 93.5677 39.1423 98.3524 44.0068 102.3L48.8509 96.3306Z" fill="#2A9BD5"/>
</g>
</svg>
