<svg width="80" height="80" viewBox="0 0 80 80" fill="none" xmlns="http://www.w3.org/2000/svg">
<g id="race-support-svgrepo-com 1">
<path id="Vector" d="M69.9203 63.6063C69.0207 62.1278 67.7784 60.8877 66.2984 59.9906H66.2906L52.6047 51.586C52.7435 51.4768 52.8577 51.3395 52.9396 51.1831C53.0215 51.0267 53.0694 50.8547 53.08 50.6784C53.0906 50.5021 53.0638 50.3256 53.0013 50.1605C52.9387 49.9954 52.8419 49.8453 52.7172 49.7203L48.725 45.7188C48.5393 45.5333 48.2999 45.411 48.0407 45.3692C47.7816 45.3274 47.5159 45.3683 47.2812 45.486L45.9109 46.1719V44.9985L45.9547 44.975C47.4154 44.1722 48.6682 43.0388 49.6129 41.6655C50.5575 40.2921 51.1679 38.7169 51.3953 37.0656H56.5266C57.0746 37.064 57.5997 36.8455 57.987 36.4578C58.3744 36.0702 58.5925 35.5449 58.5938 34.9969V26.125C58.5933 25.5761 58.3751 25.0497 57.9869 24.6615C57.5987 24.2734 57.0724 24.0551 56.5234 24.0547H55.0375C54.7232 20.2448 52.9878 16.6925 50.1757 14.1028C47.3637 11.5132 43.6806 10.0757 39.8578 10.0757C36.035 10.0757 32.352 11.5132 29.5399 14.1028C26.7279 16.6925 24.9924 20.2448 24.6781 24.0547H23.1922C22.6429 24.0555 22.1164 24.2741 21.7281 24.6625C21.3397 25.0508 21.1211 25.5773 21.1203 26.1266V34.9985C21.1211 35.5477 21.3397 36.0742 21.7281 36.4626C22.1164 36.851 22.6429 37.0695 23.1922 37.0703H24.6734C24.9496 38.4701 25.6773 39.7407 26.7451 40.687C27.8128 41.6334 29.1616 42.2033 30.5844 42.3094C31.4595 43.3978 32.5391 44.3045 33.7625 44.9781L33.8062 45.0016V46.1875L32.4312 45.5C32.1967 45.3829 31.9312 45.3425 31.6723 45.3846C31.4135 45.4266 31.1745 45.549 30.9891 45.7344L27 49.7188C26.8657 49.8533 26.7639 50.0167 26.7022 50.1965C26.6406 50.3763 26.6208 50.5678 26.6443 50.7564C26.6678 50.945 26.734 51.1258 26.8379 51.285C26.9417 51.4442 27.0806 51.5776 27.2437 51.675L13.7031 59.9906C10.6016 61.8953 8.75 65.0235 8.75 68.3578V76.6781C8.75 77.0097 8.8817 77.3276 9.11612 77.562C9.35054 77.7964 9.66848 77.9281 10 77.9281H70C70.3315 77.9281 70.6495 77.7964 70.8839 77.562C71.1183 77.3276 71.25 77.0097 71.25 76.6781V68.3563C71.2429 66.682 70.7834 65.0409 69.9203 63.6063ZM39.4516 52.7891L39.8688 52.3703L40.2859 52.7891V75.3609H39.4516V52.7891ZM42.7859 55.2891L42.9781 55.4813C43.1639 55.6667 43.4033 55.7891 43.6624 55.8308C43.9215 55.8726 44.1873 55.8318 44.4219 55.7141L50 52.9156L62.6562 60.6922C62.074 61.03 61.5361 61.4389 61.0547 61.9094C58.3672 64.5094 56.925 69.0531 56.7609 75.4281H42.7781L42.7859 55.2891ZM47.6031 48.1281L49.7328 50.2578L44.1078 53.0703L41.9766 50.9406L47.6031 48.1281ZM40.7281 46.4563C41.6415 46.4559 42.55 46.3228 43.425 46.061V47.4266L39.875 49.2047L36.3094 47.4375V46.0688C37.1849 46.3306 38.0939 46.4638 39.0078 46.4641L40.7281 46.4563ZM44.7625 42.7891C44.6438 42.8547 44.5234 42.9141 44.4031 42.9719C44.2876 42.9979 44.1762 43.0394 44.0719 43.0953C43.9766 43.1485 43.8797 43.1969 43.7812 43.2438C42.8465 43.6064 41.8526 43.7929 40.85 43.7938H38.8844C37.8834 43.7928 36.8912 43.6069 35.9578 43.2453C35.8594 43.1969 35.7609 43.1485 35.6641 43.0891C35.5595 43.0321 35.4475 42.9901 35.3312 42.9641C35.2109 42.9063 35.0906 42.8469 34.9734 42.7813C34.7186 42.6388 34.4719 42.4823 34.2344 42.3125H35.3875C35.479 42.4998 35.6212 42.6577 35.798 42.7682C35.9748 42.8787 36.179 42.9373 36.3875 42.9375H39.7563C40.0523 42.9371 40.336 42.8192 40.5452 42.6097C40.7544 42.4003 40.8719 42.1164 40.8719 41.8203V40.3063C40.8719 40.0102 40.7544 39.7263 40.5452 39.5169C40.336 39.3074 40.0523 39.1895 39.7563 39.1891H36.3875C36.1788 39.1892 35.9743 39.2478 35.7973 39.3582C35.6202 39.4687 35.4777 39.6267 35.3859 39.8141H31.8953C31.1323 38.5499 30.7288 37.1016 30.7281 35.625V32.0563C31.0047 31.925 31.2719 31.8031 31.5781 31.6922C34.0531 30.7891 36.9172 30.311 39.8594 30.311C42.8016 30.311 45.6672 30.7891 48.1406 31.6922C48.4313 31.7985 48.7156 31.911 48.9922 32.0266V35.6375C48.9886 37.1001 48.5931 38.5349 47.8467 39.7927C47.1004 41.0505 46.0305 42.0852 44.7484 42.7891H44.7625ZM30.7203 29.3438L30.6969 29.3531L30.6672 28.0203C33.3156 26.8953 36.5531 26.2797 39.8594 26.2797C43.1656 26.2797 46.4062 26.8953 49.0625 28.0235L49.0359 29.3563L49.0047 29.3438C46.2594 28.3406 43.0984 27.811 39.8656 27.811C36.6328 27.811 33.4672 28.3406 30.7203 29.3438ZM49.1125 25.3547C46.3422 24.3219 43.175 23.7797 39.8594 23.7797C36.5438 23.7797 33.3797 24.3219 30.6094 25.3547V25.1281C30.6094 20.511 34.7641 16.7547 39.8641 16.7547C44.9641 16.7547 49.1172 20.5047 49.1219 25.1281L49.1125 25.3547ZM56.0969 34.5735H51.5875V26.5547H56.0938L56.0969 34.5735ZM39.8609 12.5719C43.02 12.576 46.0651 13.753 48.4058 15.8745C50.7465 17.9961 52.2161 20.9112 52.5297 24.0547H51.5625C50.975 18.561 45.9531 14.2547 39.8625 14.2547C33.7719 14.2547 28.75 18.561 28.1625 24.0531H27.1875C27.5022 20.9094 28.9729 17.9944 31.3144 15.8732C33.6559 13.752 36.7015 12.5755 39.8609 12.5719ZM25.7984 34.5688H23.6109V26.5531H28.1203V34.5688H25.7984ZM27.2469 37.0688H28.3188C28.4147 37.7734 28.5817 38.4665 28.8172 39.1375C28.082 38.6392 27.5322 37.9119 27.2531 37.0688H27.2469ZM32.1172 48.1313L34.4937 49.3203L37.7422 50.9453L35.6063 53.0813L29.9813 50.2688L32.1172 48.1313ZM11.25 75.4281V68.3578C11.25 66.0141 12.525 63.7906 14.6781 62.336C15.1969 62.4188 16.3109 62.7375 17.4422 63.9516C18.8656 65.4766 20.5469 68.6969 20.7328 75.4281H11.25ZM18.9406 61.9094C18.4607 61.4392 17.9243 61.0303 17.3438 60.6922L29.8734 52.9969L35.3 55.7188C35.5348 55.8363 35.8006 55.8769 36.0597 55.8348C36.3189 55.7927 36.5582 55.6701 36.7438 55.4844L36.9438 55.286V75.4266H23.2344C23.0703 69.0531 21.6281 64.5094 18.9406 61.9094ZM68.75 75.4281H59.2672C59.4531 68.6985 61.1344 65.4766 62.5578 63.9516C63.6891 62.7375 64.8 62.4203 65.3188 62.336C66.313 62.9976 67.1508 63.8684 67.7734 64.8875C68.406 65.9345 68.7434 67.1331 68.75 68.3563V75.4281ZM33.3578 58.0266H26.6922C26.3607 58.0266 26.0427 58.1583 25.8083 58.3927C25.5739 58.6271 25.4422 58.9451 25.4422 59.2766V65.9422C25.4422 66.2737 25.5739 66.5917 25.8083 66.8261C26.0427 67.0605 26.3607 67.1922 26.6922 67.1922H33.3578C33.6893 67.1922 34.0073 67.0605 34.2417 66.8261C34.4761 66.5917 34.6078 66.2737 34.6078 65.9422V59.2766C34.6078 58.9451 34.4761 58.6271 34.2417 58.3927C34.0073 58.1583 33.6893 58.0266 33.3578 58.0266ZM32.1078 64.6922H27.9422V60.5266H32.1078V64.6922ZM57.6344 65.9422V59.2766C57.6344 58.9451 57.5027 58.6271 57.2683 58.3927C57.0338 58.1583 56.7159 58.0266 56.3844 58.0266H45.4688C45.1372 58.0266 44.8193 58.1583 44.5849 58.3927C44.3504 58.6271 44.2188 58.9451 44.2188 59.2766V65.9422C44.2188 66.2737 44.3504 66.5917 44.5849 66.8261C44.8193 67.0605 45.1372 67.1922 45.4688 67.1922H56.3844C56.7159 67.1922 57.0338 67.0605 57.2683 66.8261C57.5027 66.5917 57.6344 66.2737 57.6344 65.9422ZM55.1344 64.6922H46.7188V60.5266H55.1344V64.6922ZM34.5828 70.6656C34.5828 70.9972 34.4511 71.3151 34.2167 71.5495C33.9823 71.7839 33.6643 71.9156 33.3328 71.9156H26.6672C26.3357 71.9156 26.0177 71.7839 25.7833 71.5495C25.5489 71.3151 25.4172 70.9972 25.4172 70.6656C25.4172 70.3341 25.5489 70.0162 25.7833 69.7818C26.0177 69.5473 26.3357 69.4156 26.6672 69.4156H33.3328C33.6643 69.4156 33.9823 69.5473 34.2167 69.7818C34.4511 70.0162 34.5828 70.3341 34.5828 70.6656Z" fill="#2A9BD5"/>
</g>
</svg>
