<svg width="60" height="60" viewBox="0 0 60 60" fill="none" xmlns="http://www.w3.org/2000/svg">
<g id="escalate-svgrepo-com 1" clip-path="url(#clip0_456_127)">
<g id="Layer 2">
<g id="icons Q2">
<path id="Vector" d="M49.5 10.5C44.2905 5.40003 37.2903 2.54395 30 2.54395C22.7097 2.54395 15.7095 5.40003 10.5 10.5C5.42171 15.6256 2.55038 22.5348 2.5 29.75C2.50939 30.4094 2.77896 31.0384 3.25 31.5C3.46328 31.7525 3.73251 31.9517 4.0363 32.0819C4.3401 32.2121 4.67007 32.2697 5 32.25C5.66304 32.25 6.29893 31.9866 6.76777 31.5177C7.23661 31.0489 7.5 30.413 7.5 29.75C7.50067 26.8345 8.0875 23.9488 9.2256 21.2646C10.3637 18.5804 12.0299 16.1524 14.125 14.125C18.4207 10.3639 23.9855 8.37649 29.6919 8.56558C35.3983 8.75468 40.8194 11.1061 44.8566 15.1433C48.8939 19.1806 51.2453 24.6017 51.4344 30.3081C51.6235 36.0144 49.6361 41.5793 45.875 45.875C42.2764 49.4868 37.5634 51.7772 32.5 52.375V28.5L38.25 34.25C38.4905 34.5217 38.7901 34.7347 39.1258 34.8726C39.4615 35.0105 39.8243 35.0697 40.1864 35.0456C40.5485 35.0214 40.9002 34.9146 41.2146 34.7334C41.529 34.5521 41.7977 34.3012 42 34C42.3631 33.4983 42.5372 32.8844 42.4915 32.2668C42.4457 31.6492 42.1831 31.0676 41.75 30.625L31.75 20.75C31.5275 20.5075 31.2571 20.3139 30.9558 20.1814C30.6546 20.049 30.3291 19.9806 30 19.9806C29.6709 19.9806 29.3454 20.049 29.0442 20.1814C28.7429 20.3139 28.4725 20.5075 28.25 20.75L18.25 30.625C17.8169 31.0676 17.5543 31.6492 17.5085 32.2668C17.4628 32.8844 17.6369 33.4983 18 34C18.2023 34.3012 18.471 34.5521 18.7854 34.7334C19.0998 34.9146 19.4515 35.0214 19.8136 35.0456C20.1757 35.0697 20.5385 35.0105 20.8742 34.8726C21.2099 34.7347 21.5095 34.5217 21.75 34.25L27.5 28.5V55C27.5 55.663 27.7634 56.2989 28.2322 56.7677C28.7011 57.2366 29.337 57.5 30 57.5H30.25C37.4652 57.4496 44.3743 54.5783 49.5 49.5C54.5999 44.2904 57.456 37.2903 57.456 30C57.456 22.7097 54.5999 15.7095 49.5 10.5Z" fill="#2A9BD5"/>
</g>
</g>
</g>
<defs>
<clipPath id="clip0_456_127">
<rect width="60" height="60" fill="white"/>
</clipPath>
</defs>
</svg>
