<svg width="60" height="60" viewBox="0 0 60 60" fill="none" xmlns="http://www.w3.org/2000/svg">
<g id="time-update-svgrepo-com 1" clip-path="url(#clip0_456_89)">
<g id="Layer 2">
<g id="icons Q2">
<path id="Vector" d="M2.5 30C2.52616 36.1904 4.64019 42.1908 8.50004 47.0306C12.3599 51.8703 17.7398 55.2661 23.7692 56.6687C29.7987 58.0712 36.125 57.3984 41.7246 54.759C47.3241 52.1197 51.8694 47.6683 54.625 42.125C54.9349 41.6002 55.0424 40.9803 54.9273 40.3818C54.8122 39.7833 54.4824 39.2474 54 38.875C53.7072 38.6525 53.3689 38.4973 53.0092 38.4205C52.6496 38.3438 52.2774 38.3473 51.9193 38.4308C51.5611 38.5144 51.2258 38.676 50.9373 38.904C50.6488 39.132 50.4141 39.4209 50.25 39.75C48.44 43.5836 45.5725 46.8203 41.985 49.079C38.3975 51.3378 34.2393 52.5247 30 52.5C26.246 52.5034 22.5508 51.5675 19.251 49.7775C15.9512 47.9875 13.1518 45.4003 11.1076 42.2517C9.06352 39.103 7.8397 35.4929 7.54768 31.7503C7.25566 28.0076 7.90471 24.2514 9.43572 20.8238C10.9667 17.3962 13.331 14.4061 16.3132 12.1259C19.2954 9.84577 22.8007 8.34803 26.5098 7.76913C30.2189 7.19024 34.0139 7.54859 37.5491 8.81154C41.0843 10.0745 44.2473 12.2019 46.75 15H40.125C39.5074 14.9887 38.9055 15.1956 38.4254 15.5843C37.9452 15.973 37.6176 16.5185 37.5 17.125C37.4456 17.4833 37.4698 17.8491 37.5708 18.1972C37.6719 18.5452 37.8474 18.8671 38.0852 19.1406C38.323 19.4141 38.6174 19.6326 38.948 19.781C39.2787 19.9294 39.6376 20.0041 40 20H52.5C53.163 20 53.7989 19.7366 54.2678 19.2678C54.7366 18.7989 55 18.163 55 17.5V5.12499C55.0113 4.50735 54.8044 3.90551 54.4157 3.42537C54.027 2.94523 53.4814 2.61755 52.875 2.49999C52.5167 2.4456 52.1508 2.46977 51.8028 2.57081C51.4548 2.67186 51.1329 2.84736 50.8594 3.08517C50.5859 3.32297 50.3674 3.61739 50.219 3.94802C50.0706 4.27866 49.9959 4.6376 50 4.99999V11.125C46.2204 7.12003 41.3255 4.34204 35.949 3.15076C30.5726 1.95947 24.9623 2.40977 19.8448 4.44334C14.7272 6.47691 10.338 10.0001 7.24555 14.5566C4.15313 19.1131 2.49992 24.4932 2.5 30Z" fill="#2A9BD5"/>
<path id="Vector_2" d="M42.5 40C42.0543 40.0092 41.617 39.878 41.25 39.625L27.5 31.375V17.5C27.5 16.837 27.7634 16.2011 28.2322 15.7322C28.7011 15.2634 29.337 15 30 15C30.663 15 31.2989 15.2634 31.7678 15.7322C32.2366 16.2011 32.5 16.837 32.5 17.5V28.625L43.75 35.375C44.0384 35.5299 44.2917 35.7428 44.494 36.0003C44.6962 36.2578 44.843 36.5543 44.9252 36.8713C45.0073 37.1882 45.0231 37.5187 44.9714 37.842C44.9198 38.1653 44.8018 38.4744 44.625 38.75C44.4191 39.1329 44.1121 39.4519 43.7374 39.6723C43.3627 39.8927 42.9347 40.0061 42.5 40Z" fill="#2A9BD5"/>
</g>
</g>
</g>
<defs>
<clipPath id="clip0_456_89">
<rect width="60" height="60" fill="white"/>
</clipPath>
</defs>
</svg>
