<svg width="60" height="60" viewBox="0 0 60 60" fill="none" xmlns="http://www.w3.org/2000/svg">
<g id="expire-svgrepo-com 1" clip-path="url(#clip0_456_118)">
<g id="Layer 2">
<g id="Q3 icons">
<g id="Group">
<path id="Vector" d="M17.7502 39.875C17.942 39.5697 18.0656 39.2266 18.1123 38.8691C18.1591 38.5116 18.128 38.1482 18.0211 37.8039C17.9142 37.4595 17.7342 37.1424 17.4932 36.8742C17.2523 36.606 16.9562 36.393 16.6252 36.25C13.6765 35.0248 11.2051 32.8757 9.58217 30.1258C7.95927 27.3759 7.27256 24.1736 7.62522 21C7.95769 17.5322 9.48681 14.2883 11.9502 11.8249C14.4135 9.36159 17.6574 7.83247 21.1252 7.5C23.8753 7.27895 26.6335 7.81433 29.1011 9.04817C31.5688 10.282 33.652 12.1673 35.1252 14.5C35.4478 14.9415 35.8897 15.2819 36.3989 15.4811C36.9081 15.6804 37.4636 15.7303 38.0002 15.625C38.3709 15.5128 38.7104 15.316 38.992 15.0501C39.2736 14.7842 39.4896 14.4565 39.6229 14.0929C39.7563 13.7293 39.8033 13.3397 39.7603 12.9548C39.7173 12.5699 39.5855 12.2002 39.3752 11.875C37.4285 8.73318 34.6392 6.20066 31.3246 4.56544C28.01 2.93022 24.303 2.25792 20.6252 2.625C16.2168 3.05972 12.0775 4.94569 8.85672 7.987C5.63594 11.0283 3.516 15.0528 2.82953 19.4291C2.14306 23.8054 2.9289 28.2857 5.06376 32.1671C7.19861 36.0485 10.5617 39.1114 14.6252 40.875C15.1791 41.1132 15.8005 41.1432 16.3747 40.9594C16.949 40.7756 17.4375 40.3905 17.7502 39.875Z" fill="#2A9BD5"/>
<path id="Vector_2" d="M20.625 14.375V20.625H14.375C13.712 20.625 13.0761 20.8884 12.6072 21.3572C12.1384 21.8261 11.875 22.462 11.875 23.125C11.875 23.788 12.1384 24.4239 12.6072 24.8928C13.0761 25.3616 13.712 25.625 14.375 25.625H25.625V14.375C25.625 13.712 25.3616 13.0761 24.8928 12.6072C24.4239 12.1384 23.788 11.875 23.125 11.875C22.462 11.875 21.8261 12.1384 21.3572 12.6072C20.8884 13.0761 20.625 13.712 20.625 14.375Z" fill="#2A9BD5"/>
<path id="Vector_3" d="M57.1252 53.7504L38.3752 21.2504C38.1509 20.8887 37.8381 20.5901 37.4662 20.3831C37.0943 20.176 36.6758 20.0674 36.2502 20.0674C35.8245 20.0674 35.406 20.176 35.0341 20.3831C34.6622 20.5901 34.3494 20.8887 34.1252 21.2504L15.3752 53.7504C15.1574 54.1275 15.0418 54.555 15.0401 54.9905C15.0383 55.426 15.1503 55.8544 15.365 56.2333C15.5797 56.6122 15.8896 56.9284 16.2641 57.1506C16.6387 57.3729 17.0647 57.4935 17.5002 57.5004H55.0002C55.4356 57.4935 55.8617 57.3729 56.2362 57.1506C56.6107 56.9284 56.9206 56.6122 57.1353 56.2333C57.35 55.8544 57.462 55.426 57.4603 54.9905C57.4585 54.555 57.343 54.1275 57.1252 53.7504ZM36.2502 52.5004C35.7557 52.5004 35.2724 52.3538 34.8612 52.0791C34.4501 51.8044 34.1297 51.4139 33.9405 50.9571C33.7512 50.5003 33.7017 49.9976 33.7982 49.5127C33.8947 49.0277 34.1328 48.5823 34.4824 48.2327C34.832 47.883 35.2775 47.6449 35.7624 47.5485C36.2474 47.452 36.7501 47.5015 37.2069 47.6907C37.6637 47.8799 38.0541 48.2004 38.3288 48.6115C38.6035 49.0226 38.7502 49.506 38.7502 50.0004C38.7502 50.6635 38.4868 51.2994 38.0179 51.7682C37.5491 52.237 36.9132 52.5004 36.2502 52.5004ZM38.7502 42.5004C38.7502 43.1635 38.4868 43.7994 38.0179 44.2682C37.5491 44.737 36.9132 45.0004 36.2502 45.0004C35.5871 45.0004 34.9512 44.737 34.4824 44.2682C34.0136 43.7994 33.7502 43.1635 33.7502 42.5004V32.5004C33.7502 31.8374 34.0136 31.2015 34.4824 30.7327C34.9512 30.2638 35.5871 30.0004 36.2502 30.0004C36.9132 30.0004 37.5491 30.2638 38.0179 30.7327C38.4868 31.2015 38.7502 31.8374 38.7502 32.5004V42.5004Z" fill="#2A9BD5"/>
</g>
</g>
</g>
</g>
<defs>
<clipPath id="clip0_456_118">
<rect width="60" height="60" fill="white"/>
</clipPath>
</defs>
</svg>
