<svg width="71" height="71" viewBox="0 0 71 71" fill="none" xmlns="http://www.w3.org/2000/svg">
<g id="guarantee-svgrepo-com 1" clip-path="url(#clip0_470_2)">
<path id="Vector" d="M69.4436 32.1153C68.9587 31.473 68.4573 30.8085 68.3774 30.2926C68.2909 29.7435 68.5683 28.9369 68.8367 28.1582C69.2272 27.0288 69.6676 25.7486 69.2716 24.5283C68.8689 23.2847 67.7462 22.5003 66.7555 21.8081C66.0899 21.3433 65.4032 20.8629 65.1602 20.3881C64.9118 19.9022 64.9262 19.0546 64.9395 18.2359C64.9594 17.0356 64.9816 15.6766 64.2217 14.6315C63.4585 13.5821 62.1538 13.1838 61.0034 12.8333C60.2235 12.5958 59.4159 12.3485 59.0354 11.9679C58.6538 11.5863 58.4075 10.7787 58.1701 9.9988C57.8195 8.84837 57.4212 7.54375 56.3707 6.7805C55.3267 6.02058 53.9667 6.04166 52.7674 6.06273C51.9487 6.07827 51.1 6.09047 50.6152 5.84197C50.1404 5.60012 49.6601 4.91231 49.1952 4.24669C48.5041 3.25602 47.7198 2.13444 46.4762 1.73062C45.2547 1.33458 43.9723 1.775 42.8418 2.16328C42.0631 2.43175 41.2543 2.70798 40.7074 2.62367C40.1915 2.54269 39.527 2.04125 38.8836 1.55756C37.9162 0.827594 36.8179 0 35.5 0C34.1821 0 33.0838 0.827594 32.1153 1.55756C31.473 2.04236 30.8085 2.54269 30.2926 2.62367C29.7457 2.71131 28.938 2.43175 28.1582 2.16328C27.0277 1.77389 25.7475 1.33347 24.5283 1.72841C23.2847 2.13222 22.5003 3.2538 21.8081 4.24447C21.3433 4.90898 20.8629 5.5968 20.3881 5.83864C19.9022 6.08714 19.0535 6.07161 18.2359 6.05941C17.0356 6.03611 15.6766 6.01614 14.6315 6.77717C13.5821 7.54042 13.1838 8.84505 12.8333 9.99547C12.5958 10.7765 12.3485 11.583 11.9679 11.9646C11.5863 12.3462 10.7787 12.5925 9.99769 12.831C8.84727 13.1816 7.54375 13.5799 6.77939 14.6293C6.01947 15.6733 6.04166 17.0333 6.06163 18.2337C6.07494 19.0535 6.08825 19.9 5.84086 20.387C5.59902 20.8607 4.9112 21.341 4.24669 21.8059C3.25602 22.4981 2.13444 23.2825 1.72952 24.5261C1.33347 25.7475 1.775 27.0277 2.16439 28.1582C2.43286 28.938 2.71131 29.7435 2.62478 30.2926C2.5438 30.8085 2.04347 31.473 1.55867 32.1153C0.827594 33.0838 0 34.1821 0 35.5C0 36.8179 0.827594 37.9162 1.55756 38.8847C2.04236 39.527 2.54269 40.1927 2.62367 40.7085L4.8158 40.3635C4.64939 39.2996 3.97822 38.4099 3.32923 37.549C2.78342 36.8246 2.21875 36.0758 2.21875 35.5C2.21875 34.9242 2.78342 34.1754 3.32923 33.451C3.97822 32.5901 4.64828 31.7004 4.8158 30.6365C4.98775 29.5427 4.61833 28.471 4.26111 27.4348C3.97156 26.595 3.67203 25.7253 3.83955 25.2117C4.01372 24.6758 4.77808 24.1422 5.51692 23.6252C6.40442 23.0051 7.32298 22.3639 7.81666 21.3965C8.31588 20.418 8.29813 19.2898 8.27927 18.1982C8.26484 17.304 8.25042 16.381 8.57325 15.9362C8.90052 15.4869 9.78691 15.2162 10.6456 14.9544C11.6862 14.636 12.7634 14.3076 13.5366 13.5344C14.3098 12.7611 14.6382 11.685 14.9555 10.6445C15.2173 9.78691 15.4869 8.89941 15.9373 8.57214C16.3821 8.2482 17.3063 8.26262 18.1993 8.27816C19.2909 8.29591 20.418 8.31477 21.3976 7.81555C22.365 7.32188 23.0062 6.40442 23.6275 5.51581C24.1433 4.77697 24.678 4.01372 25.2139 3.83955C25.7264 3.67092 26.5962 3.97267 27.436 4.26111C28.4732 4.61833 29.5438 4.98664 30.6376 4.8158C31.7004 4.64939 32.5912 3.97822 33.4521 3.32923C34.1754 2.78342 34.9242 2.21875 35.5 2.21875C36.0758 2.21875 36.8246 2.78342 37.549 3.32923C38.4099 3.97822 39.2996 4.64828 40.3635 4.8158C41.4551 4.98442 42.529 4.61833 43.5652 4.26111C44.4061 3.97156 45.2736 3.67092 45.7895 3.83955C46.3242 4.01372 46.8589 4.77697 47.3759 5.51581C47.996 6.40331 48.6383 7.32188 49.6046 7.81555C50.5831 8.31477 51.7157 8.29923 52.8029 8.27816C53.6971 8.26484 54.6212 8.2482 55.066 8.57214C55.5153 8.89941 55.7849 9.7858 56.0478 10.6445C56.3651 11.685 56.6935 12.7622 57.4667 13.5355C58.2389 14.3087 59.3161 14.6371 60.3567 14.9544C61.2131 15.2162 62.1006 15.4869 62.4279 15.9362C62.7518 16.381 62.7363 17.304 62.7218 18.1982C62.7041 19.2898 62.6863 20.418 63.1856 21.3965C63.6792 22.3639 64.5967 23.0051 65.4842 23.6252C66.223 24.1422 66.9863 24.6758 67.1616 25.2128C67.328 25.7264 67.0295 26.595 66.74 27.4348C66.3828 28.471 66.0145 29.5427 66.1853 30.6365C66.3528 31.6993 67.024 32.5901 67.6719 33.4499C68.2166 34.1754 68.7812 34.9242 68.7812 35.5C68.7812 36.0758 68.2166 36.8246 67.6708 37.5501C67.0229 38.4099 66.3528 39.2996 66.1842 40.3635L68.3774 40.7085C68.4573 40.1927 68.9587 39.5281 69.4436 38.8847C70.1724 37.9162 71 36.8179 71 35.5C71 34.1821 70.1724 33.0838 69.4436 32.1153ZM60.3544 56.0467C59.3138 56.364 58.2366 56.6924 57.4645 57.4656C56.6913 58.2378 56.3629 59.315 56.0445 60.3555C55.7838 61.2131 55.5131 62.0995 55.0627 62.4268C54.619 62.7496 53.6893 62.734 52.8018 62.7207C51.7102 62.703 50.5831 62.6852 49.6024 63.1845C48.6361 63.6781 47.9949 64.5956 47.3747 65.4831C46.8578 66.2219 46.3242 66.9852 45.7872 67.1605C45.2725 67.3291 44.405 67.0295 43.564 66.7389C42.5279 66.3828 41.4551 66.02 40.3624 66.1842C39.2985 66.3517 38.4088 67.0229 37.549 67.6708C36.8246 68.2166 36.0758 68.7812 35.5 68.7812C34.9242 68.7812 34.1754 68.2166 33.4499 67.6708C32.5901 67.0229 31.6993 66.3528 30.6365 66.1842C29.546 66.02 28.471 66.3828 27.4348 66.7389C26.595 67.0284 25.7275 67.3291 25.2117 67.1605C24.6758 66.9863 24.1411 66.2219 23.6252 65.4831C23.004 64.5945 22.3628 63.677 21.3965 63.1833C20.418 62.6841 19.2887 62.7019 18.1993 62.7207C17.3051 62.7318 16.381 62.7507 15.9362 62.4256C15.4869 62.0984 15.2162 61.212 14.9544 60.3544C14.636 59.3138 14.3076 58.2366 13.5344 57.4645C12.7611 56.6913 11.685 56.3629 10.6433 56.0445C9.7858 55.7838 8.8983 55.5131 8.57214 55.0627L6.77828 56.3696C7.54153 57.4179 8.84616 57.8162 9.99547 58.1667C10.7765 58.4053 11.5841 58.6515 11.9657 59.0332C12.3473 59.4148 12.5936 60.2213 12.8321 61.0023C13.1827 62.1527 13.581 63.4562 14.6304 64.2195C15.6744 64.9816 17.0345 64.9561 18.2359 64.9373C19.0535 64.9284 19.9022 64.9106 20.3881 65.158C20.8618 65.3999 21.3422 66.0877 21.807 66.7533C22.4992 67.744 23.2836 68.8656 24.5272 69.2705C25.7464 69.6632 27.0277 69.2261 28.1582 68.8356C28.938 68.5683 29.7457 68.282 30.2926 68.3763C30.8085 68.4562 31.473 68.9576 32.1153 69.4424C33.0838 70.1724 34.1821 71 35.5 71C36.8179 71 37.9162 70.1724 38.8847 69.4436C39.527 68.9587 40.1927 68.4573 40.7085 68.3774C41.2499 68.282 42.0631 68.5683 42.843 68.8367C43.9745 69.2272 45.2558 69.6688 46.4728 69.2716C47.7164 68.8689 48.5008 67.7451 49.193 66.7544C49.6578 66.0899 50.1393 65.4021 50.6119 65.1602C51.0978 64.9106 51.9432 64.924 52.7641 64.9395C53.9567 64.9583 55.3223 64.9816 56.3685 64.2217C57.4168 63.4585 57.8151 62.155 58.1656 61.0045C58.4042 60.2246 58.6504 59.4159 59.0321 59.0354C59.4137 58.6538 60.2202 58.4075 61.0001 58.1701C62.1505 57.8195 63.4551 57.4201 64.2184 56.3707L62.4245 55.066C62.0995 55.5142 61.212 55.7838 60.3544 56.0467Z" fill="#2A9BD5"/>
<path id="Vector_2" d="M8.875 51.0312V48.8125C8.875 48.199 8.378 47.7031 7.76562 47.7031H5.54688V49.9219H6.65625V51.0312C6.65625 51.6436 6.15814 52.1406 5.54688 52.1406C4.93561 52.1406 4.4375 51.6436 4.4375 51.0312V44.375C4.4375 43.7626 4.93561 43.2656 5.54688 43.2656C6.15814 43.2656 6.65625 43.7626 6.65625 44.375V45.4844H8.875V44.375C8.875 42.5401 7.38178 41.0469 5.54688 41.0469C3.71197 41.0469 2.21875 42.5401 2.21875 44.375V51.0312C2.21875 52.8662 3.71197 54.3594 5.54688 54.3594C7.38178 54.3594 8.875 52.8662 8.875 51.0312ZM9.98438 41.0469V51.0312C9.98438 52.8662 11.4776 54.3594 13.3125 54.3594C15.1474 54.3594 16.6406 52.8662 16.6406 51.0312V41.0469H14.4219V51.0312C14.4219 51.6436 13.9238 52.1406 13.3125 52.1406C12.7012 52.1406 12.2031 51.6436 12.2031 51.0312V41.0469H9.98438ZM17.75 44.375V54.3594H19.9688V52.1406H22.1875V54.3594H24.4062V44.375C24.4062 42.5401 22.913 41.0469 21.0781 41.0469C19.2432 41.0469 17.75 42.5401 17.75 44.375ZM22.1875 44.375V49.9219H19.9688V44.375C19.9688 43.7626 20.4669 43.2656 21.0781 43.2656C21.6894 43.2656 22.1875 43.7626 22.1875 44.375ZM33.2812 44.375V54.3594H35.5V52.1406H37.7188V54.3594H39.9375V44.375C39.9375 42.5401 38.4443 41.0469 36.6094 41.0469C34.7745 41.0469 33.2812 42.5401 33.2812 44.375ZM36.6094 43.2656C37.2217 43.2656 37.7188 43.7626 37.7188 44.375V49.9219H35.5V44.375C35.5 43.7626 35.9981 43.2656 36.6094 43.2656ZM25.5156 42.1562V47.6987C25.5156 47.702 25.5156 47.7042 25.5156 47.7065V54.3594H27.7344V50.866L30.1961 53.9434C30.4069 54.2063 30.7253 54.3594 31.0625 54.3594H32.1719V52.1406H31.595L28.8948 48.7648C30.7497 48.473 32.1719 46.8644 32.1719 44.9297C32.1719 42.7886 30.4302 41.0469 28.2891 41.0469H26.625C26.0126 41.0469 25.5156 41.5428 25.5156 42.1562ZM27.7344 43.2656H28.2891C29.2065 43.2656 29.9531 44.0122 29.9531 44.9297C29.9531 45.8471 29.2065 46.5938 28.2891 46.5938H27.7344V43.2656ZM45.4844 47.4901L43.1869 41.7447C42.9883 41.2488 42.4602 40.9725 41.9466 41.0668C41.4241 41.1667 41.0469 41.6249 41.0469 42.1562V54.3594H43.2656V47.9161L45.5631 53.6616C45.7351 54.0898 46.1478 54.3594 46.5926 54.3594C46.6625 54.3594 46.7335 54.3527 46.8034 54.3394C47.3259 54.2396 47.7031 53.7814 47.7031 53.25V41.0469H45.4844V47.4901ZM53.25 43.2656H55.4688V41.0469H48.8125V43.2656H51.0312V54.3594H53.25V43.2656ZM62.125 43.2656V41.0469H57.6875C57.074 41.0469 56.5781 41.5428 56.5781 42.1562V53.25C56.5781 53.8635 57.074 54.3594 57.6875 54.3594H62.125V52.1406H58.7969V48.8125H62.125V46.5938H58.7969V43.2656H62.125ZM63.2344 42.1562V53.25C63.2344 53.8635 63.7303 54.3594 64.3438 54.3594H68.7812V52.1406H65.4531V48.8125H68.7812V46.5938H65.4531V43.2656H68.7812V41.0469H64.3438C63.7303 41.0469 63.2344 41.5428 63.2344 42.1562Z" fill="#2A9BD5"/>
<path id="Vector_3" d="M63.2344 35.5C63.2344 20.2073 50.7927 7.76562 35.5 7.76562C20.2073 7.76562 7.76562 20.2073 7.76562 35.5C7.76562 36.6171 7.84106 37.7831 7.98861 38.9657L10.1896 38.6906C10.0532 37.5989 9.98438 36.5251 9.98438 35.5C9.98438 21.4309 21.4309 9.98438 35.5 9.98438C49.5702 9.98438 61.0156 21.4309 61.0156 35.5C61.0156 36.5251 60.9468 37.5989 60.8093 38.6906L63.0103 38.9657C63.16 37.7831 63.2344 36.6171 63.2344 35.5ZM52.4368 57.4556L51.0801 55.7006C46.5771 59.1774 41.1911 61.0156 35.5 61.0156C29.81 61.0156 24.4229 59.1774 19.921 55.7006L18.5643 57.4556C23.4588 61.2364 29.3141 63.2344 35.5 63.2344C41.6859 63.2344 47.5423 61.2364 52.4368 57.4556Z" fill="#2A9BD5"/>
<path id="Vector_4" d="M24.4062 23.2969H22.1875V25.5156H23.2969V36.6094H25.5156V24.4062C25.5156 23.7939 25.0186 23.2969 24.4062 23.2969ZM30.5078 23.2969C28.3667 23.2969 26.625 25.0386 26.625 27.1797V32.7266C26.625 34.8677 28.3667 36.6094 30.5078 36.6094C32.6489 36.6094 34.3906 34.8677 34.3906 32.7266V27.1797C34.3906 25.0386 32.6489 23.2969 30.5078 23.2969ZM32.1719 32.7266C32.1719 33.644 31.4253 34.3906 30.5078 34.3906C29.5904 34.3906 28.8438 33.644 28.8438 32.7266V27.1797C28.8438 26.2622 29.5904 25.5156 30.5078 25.5156C31.4253 25.5156 32.1719 26.2622 32.1719 27.1797V32.7266ZM39.3828 23.2969C37.2417 23.2969 35.5 25.0386 35.5 27.1797V32.7266C35.5 34.8677 37.2417 36.6094 39.3828 36.6094C41.5239 36.6094 43.2656 34.8677 43.2656 32.7266V27.1797C43.2656 25.0386 41.5239 23.2969 39.3828 23.2969ZM41.0469 32.7266C41.0469 33.644 40.3003 34.3906 39.3828 34.3906C38.4654 34.3906 37.7188 33.644 37.7188 32.7266V27.1797C37.7188 26.2622 38.4654 25.5156 39.3828 25.5156C40.3003 25.5156 41.0469 26.2622 41.0469 27.1797V32.7266Z" fill="#2A9BD5"/>
<path id="Vector_5" d="M46.709 35.0039L51.1465 26.1289L53.1312 27.1207L48.6937 35.9957L46.709 35.0039Z" fill="#2A9BD5"/>
<path id="Vector_6" d="M47.7031 27.7344H45.4844V29.9531H47.7031V27.7344Z" fill="#2A9BD5"/>
<path id="Vector_7" d="M54.3594 32.1719H52.1406V34.3906H54.3594V32.1719Z" fill="#2A9BD5"/>
</g>
<defs>
<clipPath id="clip0_470_2">
<rect width="71" height="71" fill="white"/>
</clipPath>
</defs>
</svg>
