<svg width="124" height="123" viewBox="0 0 124 123" fill="none" xmlns="http://www.w3.org/2000/svg">
<path d="M62 28.5669L59.1925 31.1921C59.9192 31.9695 60.9355 32.4107 62 32.4107C63.0645 32.4107 64.0807 31.9695 64.8075 31.1921L62 28.5669ZM14.0894 70.1203C15.188 71.9371 17.5511 72.5188 19.3676 71.4205C21.184 70.3217 21.766 67.9586 20.6674 66.1423L14.0894 70.1203ZM34.0038 82.8744C32.5228 81.3533 30.0893 81.321 28.5684 82.8021C27.0475 84.2828 27.0152 86.7166 28.4962 88.2372L34.0038 82.8744ZM14.5937 47.7518C14.5937 32.8656 21.0905 23.6633 29.1284 20.5159C37.1485 17.3755 48.3695 19.6169 59.1925 31.1921L64.8075 25.9418C52.569 12.8523 38.1649 8.72166 26.3254 13.3576C14.5037 17.9866 6.90625 30.709 6.90625 47.7518H14.5937ZM79.9934 102.3C87.6419 96.0928 96.8059 87.7744 104.09 78.4838C111.3 69.2875 117.094 58.606 117.094 47.7516H109.406C109.406 56.0102 104.9 64.9917 98.0405 73.7401C91.2555 82.3942 82.5799 90.3005 75.1492 96.3306L79.9934 102.3ZM117.094 47.7516C117.094 30.709 109.496 17.9866 97.6746 13.3576C85.8353 8.72166 71.431 12.8523 59.1925 25.9418L64.8075 31.1921C75.6304 19.6169 86.8516 17.3755 94.8717 20.5159C102.909 23.6632 109.406 32.8655 109.406 47.7516H117.094ZM44.0068 102.3C50.523 107.588 55.0418 111.468 62 111.468V103.781C58.2951 103.781 55.9879 102.122 48.8509 96.3306L44.0068 102.3ZM75.1492 96.3306C68.0121 102.122 65.7049 103.781 62 103.781V111.468C68.9582 111.468 73.4769 107.588 79.9934 102.3L75.1492 96.3306ZM20.6674 66.1423C16.8391 59.8124 14.5937 53.5814 14.5937 47.7518H6.90625C6.90625 55.5018 9.86061 63.1288 14.0894 70.1203L20.6674 66.1423ZM48.8509 96.3306C44.1512 92.5166 38.932 87.9353 34.0038 82.8744L28.4962 88.2372C33.6868 93.5677 39.1423 98.3524 44.0068 102.3L48.8509 96.3306Z" fill="#204E82"/>
<path d="M84.5802 56.3307C83.6834 54.174 82.1937 52.344 80.3155 51.0486C79.3809 50.4048 78.3468 49.8927 77.237 49.5435C76.1346 49.1867 74.9566 49.0004 73.7406 49.0004C72.1817 49.0004 70.6843 49.311 69.3163 49.8776C69.2019 49.9237 69.0958 49.97 68.9897 50.0245C67.7581 50.5752 66.6328 51.3509 65.6677 52.2742C65.356 52.5765 65.0598 52.8946 64.7628 53.2514C64.2387 53.8642 63.6991 54.5702 63.1743 55.2837C63.0681 55.4306 62.9538 55.5859 62.8477 55.7337C62.5589 56.1367 59.7989 60.2635 59.3126 61.0005C59.0692 61.3723 58.7804 61.7912 58.4686 62.2488C58.4003 62.3496 58.3246 62.4587 58.2489 62.5669C57.7315 63.3192 57.154 64.1107 56.6217 64.8092C56.356 65.1576 56.0895 65.4833 55.8615 65.7552C55.6263 66.034 55.4132 66.259 55.261 66.4066C54.6078 67.0346 53.8394 67.5467 52.9962 67.8959C52.1522 68.2451 51.2324 68.439 50.2592 68.439C49.5903 68.439 48.9445 68.3457 48.3366 68.1753C48.0248 68.0898 47.7204 67.9814 47.4242 67.8496C46.1163 67.2906 44.999 66.3445 44.2159 65.1575C43.821 64.5606 43.5092 63.9092 43.2962 63.2107C43.0912 62.5123 42.9696 61.7761 42.9696 61.0004C42.9696 59.9687 43.1752 58.9991 43.5396 58.1067C44.0949 56.7728 45.0221 55.6404 46.1853 54.8336C46.7703 54.4299 47.4086 54.12 48.093 53.9026C48.7768 53.6852 49.499 53.5618 50.2592 53.5618C51.2324 53.5693 52.1522 53.7557 52.9962 54.1042C53.8395 54.4609 54.6078 54.9654 55.261 55.5934C55.4132 55.7411 55.6263 55.9736 55.8615 56.2455C56.2721 56.7341 56.7583 57.3621 57.2453 58.0219C57.4353 58.2855 57.6253 58.5491 57.8153 58.8203C58.545 57.7348 59.8218 55.8266 60.4907 54.8411C60.3771 54.6858 60.2628 54.5313 60.1492 54.376C59.8448 53.9798 59.5405 53.6003 59.2369 53.2511C58.9325 52.8943 58.6437 52.5762 58.332 52.2739C57.2831 51.2649 56.0442 50.4431 54.6834 49.8772C53.3153 49.3106 51.8173 49 50.2592 49C48.6402 49 47.0894 49.334 45.676 49.9468C43.5627 50.8543 41.7759 52.3746 40.5064 54.2903C39.8755 55.2448 39.3744 56.3068 39.0247 57.4317C38.6826 58.5644 38.5 59.759 38.5 61.0006C38.5 62.6526 38.8266 64.235 39.4198 65.6697C40.3165 67.8339 41.8063 69.6572 43.6763 70.9525C44.6191 71.5964 45.6532 72.1077 46.7629 72.4645C47.8652 72.8137 49.0433 73 50.2593 73C51.8174 73 53.3155 72.6894 54.6835 72.1236C56.0443 71.557 57.2758 70.735 58.3247 69.7344L58.3321 69.7268C58.6439 69.4321 58.9327 69.1057 59.237 68.7489C59.7611 68.1361 60.3007 67.4308 60.8256 66.7173C60.9318 66.5695 61.046 66.4218 61.1522 66.2748C61.441 65.8635 65.2194 60.2088 65.5305 59.7514C65.5995 59.6506 65.6753 59.5423 65.7509 59.4332C66.2684 58.6886 66.8459 57.8895 67.3781 57.1919C67.6439 56.8427 67.9103 56.5169 68.1383 56.2457C68.3736 55.9662 68.5867 55.7412 68.7388 55.5936C69.392 54.9656 70.1604 54.4611 71.0037 54.1044C71.2093 54.0195 71.4142 53.9499 71.6272 53.8794C72.296 53.678 73.0027 53.5696 73.7406 53.562C74.7516 53.5695 75.7093 53.7711 76.5755 54.1513C77.8828 54.7096 79.0008 55.6557 79.7832 56.8427C80.1788 57.4403 80.4906 58.0918 80.7029 58.7893C80.9159 59.4878 81.0302 60.2248 81.0302 61.0005C81.0302 62.0322 80.8246 63.0093 80.4602 63.8933C79.9049 65.2272 78.9777 66.368 77.8145 67.1664C77.2296 67.5701 76.5912 67.8883 75.9068 68.0974C75.2305 68.3148 74.5008 68.4391 73.7406 68.4391C72.7674 68.4391 71.8476 68.2452 71.0036 67.896C70.1603 67.5468 69.3919 67.0347 68.7387 66.4067C68.5865 66.259 68.3735 66.0265 68.1382 65.7553C67.7277 65.2743 67.2408 64.638 66.7544 63.979C66.5571 63.7154 66.367 63.4434 66.1769 63.1722C66.1161 63.2654 66.0552 63.3587 65.9869 63.4593C64.7324 65.3364 63.9418 66.5234 63.509 67.1665C63.6225 67.3218 63.7369 67.4695 63.8504 67.6248C64.1548 68.0202 64.4591 68.4005 64.7627 68.7489C65.0596 69.1056 65.3559 69.4321 65.6677 69.7268C66.7165 70.735 67.9555 71.557 69.3162 72.1236C70.6844 72.6894 72.1817 73 73.7405 73C75.3595 73 76.9103 72.6667 78.3163 72.0615C80.437 71.1464 82.2231 69.6261 83.4932 67.7097C84.1235 66.756 84.6334 65.7008 84.9749 64.5683C85.3173 63.4434 85.5 62.2413 85.5 61.0006C85.5 59.3485 85.1734 57.7661 84.5802 56.3307Z" fill="#204E82"/>
</svg>
