<svg width="64" height="64" viewBox="0 0 64 64" fill="none" xmlns="http://www.w3.org/2000/svg">
<path id="Vector" d="M64 32C64 32.7072 63.7191 33.3855 63.219 33.8856C62.7189 34.3857 62.0406 34.6667 61.3333 34.6667C60.6261 34.6667 59.9478 34.3857 59.4477 33.8856C58.9476 33.3855 58.6667 32.7072 58.6667 32C58.6589 24.9299 55.8469 18.1517 50.8476 13.1524C45.8483 8.15311 39.0701 5.3411 32 5.33333C31.2928 5.33333 30.6145 5.05238 30.1144 4.55229C29.6143 4.05219 29.3333 3.37391 29.3333 2.66667C29.3333 1.95942 29.6143 1.28115 30.1144 0.781049C30.6145 0.280952 31.2928 0 32 0C40.4841 0.00917622 48.6181 3.38354 54.6173 9.38272C60.6165 15.3819 63.9908 23.5159 64 32ZM42.6667 34.6667C43.3739 34.6667 44.0522 34.3857 44.5523 33.8856C45.0524 33.3855 45.3333 32.7072 45.3333 32C45.3333 31.2928 45.0524 30.6145 44.5523 30.1144C44.0522 29.6143 43.3739 29.3333 42.6667 29.3333H36.5947C36.1299 28.5345 35.4655 27.8701 34.6667 27.4053V18.6667C34.6667 17.9594 34.3857 17.2811 33.8856 16.781C33.3855 16.281 32.7072 16 32 16C31.2928 16 30.6145 16.281 30.1144 16.781C29.6143 17.2811 29.3333 17.9594 29.3333 18.6667V27.4053C28.6261 27.8126 28.022 28.3772 27.568 29.0554C27.114 29.7336 26.8222 30.5072 26.7152 31.3163C26.6082 32.1253 26.6889 32.9482 26.951 33.7211C27.2131 34.494 27.6496 35.1962 28.2267 35.7733C28.8038 36.3504 29.506 36.7869 30.2789 37.049C31.0518 37.3111 31.8747 37.3918 32.6838 37.2848C33.4928 37.1778 34.2664 36.886 34.9446 36.432C35.6228 35.978 36.1874 35.3739 36.5947 34.6667H42.6667ZM4.872 18.0907C4.34458 18.0907 3.82901 18.2471 3.39048 18.5401C2.95195 18.8331 2.61016 19.2496 2.40832 19.7368C2.20649 20.2241 2.15368 20.7603 2.25657 21.2776C2.35947 21.7949 2.61344 22.27 2.98638 22.643C3.35932 23.0159 3.83448 23.2699 4.35176 23.3728C4.86904 23.4757 5.40522 23.4228 5.89249 23.221C6.37976 23.0192 6.79624 22.6774 7.08925 22.2389C7.38227 21.8003 7.53867 21.2847 7.53867 20.7573C7.53867 20.0501 7.25772 19.3718 6.75762 18.8717C6.25752 18.3716 5.57925 18.0907 4.872 18.0907ZM5.33333 32C5.33333 31.4726 5.17694 30.957 4.88392 30.5185C4.5909 30.0799 4.17443 29.7382 3.68716 29.5363C3.19989 29.3345 2.66371 29.2817 2.14643 29.3846C1.62914 29.4875 1.15399 29.7414 0.78105 30.1144C0.40811 30.4873 0.154134 30.9625 0.0512405 31.4798C-0.0516535 31.997 0.00115542 32.5332 0.202989 33.0205C0.404823 33.5078 0.746616 33.9242 1.18515 34.2173C1.62368 34.5103 2.13925 34.6667 2.66667 34.6667C3.37391 34.6667 4.05219 34.3857 4.55229 33.8856C5.05238 33.3855 5.33333 32.7072 5.33333 32ZM32 58.6667C31.4726 58.6667 30.957 58.8231 30.5185 59.1161C30.0799 59.4091 29.7382 59.8256 29.5363 60.3128C29.3345 60.8001 29.2817 61.3363 29.3846 61.8536C29.4875 62.3709 29.7414 62.846 30.1144 63.219C30.4873 63.5919 30.9625 63.8459 31.4798 63.9488C31.997 64.0517 32.5332 63.9988 33.0205 63.797C33.5078 63.5952 33.9242 63.2534 34.2173 62.8149C34.5103 62.3763 34.6667 61.8608 34.6667 61.3333C34.6667 60.6261 34.3857 59.9478 33.8856 59.4477C33.3855 58.9476 32.7072 58.6667 32 58.6667ZM11.256 8.552C10.7286 8.552 10.213 8.7084 9.77448 9.00142C9.33595 9.29443 8.99416 9.71091 8.79232 10.1982C8.59049 10.6854 8.53768 11.2216 8.64057 11.7389C8.74347 12.2562 8.99744 12.7313 9.37038 13.1043C9.74332 13.4772 10.2185 13.7312 10.7358 13.8341C11.253 13.937 11.7892 13.8842 12.2765 13.6823C12.7638 13.4805 13.1802 13.1387 13.4733 12.7002C13.7663 12.2617 13.9227 11.7461 13.9227 11.2187C13.9227 10.5114 13.6417 9.83315 13.1416 9.33305C12.6415 8.83295 11.9632 8.552 11.256 8.552ZM20.744 2.24267C20.2166 2.24267 19.701 2.39906 19.2625 2.69208C18.8239 2.9851 18.4822 3.40157 18.2803 3.88884C18.0785 4.37611 18.0257 4.91229 18.1286 5.42957C18.2315 5.94686 18.4854 6.42201 18.8584 6.79495C19.2313 7.16789 19.7065 7.42187 20.2238 7.52476C20.741 7.62765 21.2772 7.57485 21.7645 7.37301C22.2518 7.17118 22.6682 6.82939 22.9613 6.39085C23.2543 5.95232 23.4107 5.43675 23.4107 4.90933C23.4107 4.20209 23.1297 3.52381 22.6296 3.02372C22.1295 2.52362 21.4512 2.24267 20.744 2.24267ZM4.872 40.576C4.34458 40.576 3.82901 40.7324 3.39048 41.0254C2.95195 41.3184 2.61016 41.7349 2.40832 42.2222C2.20649 42.7094 2.15368 43.2456 2.25657 43.7629C2.35947 44.2802 2.61344 44.7553 2.98638 45.1283C3.35932 45.5012 3.83448 45.7552 4.35176 45.8581C4.86904 45.961 5.40522 45.9082 5.89249 45.7063C6.37976 45.5045 6.79624 45.1627 7.08925 44.7242C7.38227 44.2857 7.53867 43.7701 7.53867 43.2427C7.53867 42.5354 7.25772 41.8571 6.75762 41.357C6.25752 40.857 5.57925 40.576 4.872 40.576ZM11.256 50.1147C10.7286 50.1147 10.213 50.2711 9.77448 50.5641C9.33595 50.8571 8.99416 51.2736 8.79232 51.7608C8.59049 52.2481 8.53768 52.7843 8.64057 53.3016C8.74347 53.8189 8.99744 54.294 9.37038 54.667C9.74332 55.0399 10.2185 55.2939 10.7358 55.3968C11.253 55.4997 11.7892 55.4468 12.2765 55.245C12.7638 55.0432 13.1802 54.7014 13.4733 54.2629C13.7663 53.8243 13.9227 53.3088 13.9227 52.7813C13.9227 52.0741 13.6417 51.3958 13.1416 50.8957C12.6415 50.3956 11.9632 50.1147 11.256 50.1147ZM20.744 56.424C20.2166 56.424 19.701 56.5804 19.2625 56.8734C18.8239 57.1664 18.4822 57.5829 18.2803 58.0702C18.0785 58.5574 18.0257 59.0936 18.1286 59.6109C18.2315 60.1282 18.4854 60.6033 18.8584 60.9763C19.2313 61.3492 19.7065 61.6032 20.2238 61.7061C20.741 61.809 21.2772 61.7562 21.7645 61.5543C22.2518 61.3525 22.6682 61.0107 22.9613 60.5722C23.2543 60.1337 23.4107 59.6181 23.4107 59.0907C23.4107 58.3834 23.1297 57.7051 22.6296 57.205C22.1295 56.705 21.4512 56.424 20.744 56.424ZM59.128 40.576C58.6006 40.576 58.085 40.7324 57.6465 41.0254C57.208 41.3184 56.8662 41.7349 56.6643 42.2222C56.4625 42.7094 56.4097 43.2456 56.5126 43.7629C56.6155 44.2802 56.8694 44.7553 57.2424 45.1283C57.6153 45.5012 58.0905 45.7552 58.6078 45.8581C59.125 45.961 59.6612 45.9082 60.1485 45.7063C60.6358 45.5045 61.0522 45.1627 61.3453 44.7242C61.6383 44.2857 61.7947 43.7701 61.7947 43.2427C61.7947 42.8925 61.7257 42.5457 61.5917 42.2222C61.4577 41.8986 61.2612 41.6047 61.0136 41.357C60.766 41.1094 60.472 40.913 60.1485 40.779C59.825 40.645 59.4782 40.576 59.128 40.576ZM52.744 50.1147C52.2166 50.1147 51.701 50.2711 51.2625 50.5641C50.824 50.8571 50.4822 51.2736 50.2803 51.7608C50.0785 52.2481 50.0257 52.7843 50.1286 53.3016C50.2315 53.8189 50.4854 54.294 50.8584 54.667C51.2313 55.0399 51.7065 55.2939 52.2238 55.3968C52.741 55.4997 53.2772 55.4468 53.7645 55.245C54.2518 55.0432 54.6682 54.7014 54.9613 54.2629C55.2543 53.8243 55.4107 53.3088 55.4107 52.7813C55.4107 52.4311 55.3417 52.0844 55.2077 51.7608C55.0737 51.4373 54.8772 51.1433 54.6296 50.8957C54.382 50.6481 54.088 50.4517 53.7645 50.3177C53.441 50.1836 53.0942 50.1147 52.744 50.1147ZM43.256 56.424C42.7286 56.424 42.213 56.5804 41.7745 56.8734C41.3359 57.1664 40.9942 57.5829 40.7923 58.0702C40.5905 58.5574 40.5377 59.0936 40.6406 59.6109C40.7435 60.1282 40.9974 60.6033 41.3704 60.9763C41.7433 61.3492 42.2185 61.6032 42.7358 61.7061C43.253 61.809 43.7892 61.7562 44.2765 61.5543C44.7638 61.3525 45.1802 61.0107 45.4733 60.5722C45.7663 60.1337 45.9227 59.6181 45.9227 59.0907C45.9227 58.7405 45.8537 58.3937 45.7197 58.0702C45.5857 57.7466 45.3892 57.4527 45.1416 57.205C44.894 56.9574 44.6 56.761 44.2765 56.627C43.953 56.493 43.6062 56.424 43.256 56.424Z" fill="#2A9BD5"/>
</svg>
